# xmcd
#
# Track frame offsets: 
#        150
#        24646
#        52696
#        74830
#        107295
#        143599
#
# Disc length: 2358 seconds
#
# Revision: 1
# Processed by: cddbd v1.5.1PL0 Copyright (c) Steve Scherf et al.
# Submitted via: ExactAudioCopy v0.95b2
#
DISCID=48093406
DTITLE=George Wallington Quintet - The New York Scene
DYEAR=1957
DGENRE=Jazz
TTITLE0=In Salah
TTITLE1=Up Tohickon Creek
TTITLE2=Graduation Day
TTITLE3=Indian Summer
TTITLE4='Dis Mornin'
TTITLE5=Sol's Ollie
EXTD=YEAR: 1957
EXTT0=
EXTT1=
EXTT2=
EXTT3=
EXTT4=
EXTT5=
PLAYORDER=
